<svg xmlns="http://www.w3.org/2000/svg" width="266.084" height="59.409" viewBox="0 0 266.084 59.409">
  <g id="Group_4207" data-name="Group 4207" transform="translate(-184.892 -714.616)">
    <g id="LexisNexis_logo" transform="translate(184.892 714.616)">
      <path id="path28520" d="M67.176,12.591h-3.62V41.049H81.6v-3.54H67.176ZM219.6,22.87l-7.16,8.237,7.22,8.3-2.415,2.095-.058-.067-6.865-7.9L203.4,41.506l-2.41-2.095.058-.071,7.16-8.233L200.986,22.8l2.41-2.1.062.067,6.865,7.9,6.923-7.964,2.415,2.1ZM172.355,33.049,152.945,12.591h-.717V41.049h3.62V20.591l19.409,20.458h.715V12.591h-3.618Zm50.927-11.886H226.7V41.049h-3.421Zm-.162-5.371h3.742v-3.2H223.12ZM199.912,31.94c-.08-7.079-4.137-11.1-9.706-11.1a10.029,10.029,0,0,0-9.984,10.263,10.057,10.057,0,0,0,10.224,10.261,11.073,11.073,0,0,0,7.995-3.221l-.018-.02-2.435-2.117a8.239,8.239,0,0,1-5.542,2.137,6.637,6.637,0,0,1-6.685-6.206Zm-3.856-2.983H183.924a6.218,6.218,0,0,1,6.082-4.97,5.682,5.682,0,0,1,6.049,4.97m43.234.755-1.694-.6c-2.4-.835-3.019-1.789-3.019-3.021,0-1.392,1.367-2.188,2.936-2.188a4.3,4.3,0,0,1,3.354,1.551l2.317-2.015a7.086,7.086,0,0,0-5.671-2.6c-3.762,0-6.45,2.306-6.45,5.29,0,2.386,1.283,4.573,4.921,5.886l1.612.6c2.437.834,3.514,1.669,3.514,3.181s-1.654,2.506-3.68,2.506A6.1,6.1,0,0,1,232.55,35.8l-2.442,2.124a9.229,9.229,0,0,0,7.24,3.445c4.506,0,7.318-2.506,7.318-5.689,0-2.943-1.862-4.732-5.376-5.966M122.44,22.8l-2.411-2.1L113.1,28.668l-6.865-7.9-.06-.067-2.415,2.1,7.221,8.306-7.16,8.233-.062.071,2.415,2.095,6.925-7.964,6.863,7.9.062.067,2.411-2.095-7.218-8.3,7.16-8.237Zm3.622-1.638h3.421V41.049h-3.421Zm-.158-5.371h3.744v-3.2H125.9ZM102.694,31.94c-.08-7.079-4.135-11.1-9.706-11.1a10.026,10.026,0,0,0-9.982,10.263A10.055,10.055,0,0,0,93.227,41.368a11.074,11.074,0,0,0,8-3.221l-.018-.02L98.77,36.01a8.244,8.244,0,0,1-5.543,2.137,6.634,6.634,0,0,1-6.681-6.206Zm-3.858-2.983H86.7a6.221,6.221,0,0,1,6.086-4.97,5.678,5.678,0,0,1,6.046,4.97m43.236.755-1.694-.6c-2.4-.835-3.019-1.789-3.019-3.021,0-1.392,1.367-2.188,2.937-2.188a4.3,4.3,0,0,1,3.352,1.551l2.317-2.015a7.083,7.083,0,0,0-5.669-2.6c-3.764,0-6.452,2.306-6.452,5.291,0,2.386,1.283,4.573,4.919,5.886l1.614.6c2.439.834,3.514,1.669,3.514,3.181s-1.654,2.506-3.68,2.506a6.1,6.1,0,0,1-4.879-2.506l-2.442,2.124a9.229,9.229,0,0,0,7.24,3.445c4.506,0,7.318-2.506,7.318-5.689,0-2.943-1.862-4.732-5.376-5.966M250.132,18.446a2.617,2.617,0,0,0-2.635-2.657,2.653,2.653,0,0,0-2.646,2.657,2.641,2.641,0,1,0,5.281,0m-.439,0a2.2,2.2,0,1,1-4.393,0,2.2,2.2,0,1,1,4.393,0M248,18.577l.715,1.318h-.531L247.5,18.65h-.521v1.245h-.493V16.91h1.054c.677,0,1.066.311,1.066.852a.755.755,0,0,1-.606.815m-.5-1.219h-.526v.863h.537c.426,0,.6-.135.6-.448,0-.286-.189-.415-.615-.415M48.995,9.932a2.618,2.618,0,0,0-2.635-2.657,2.655,2.655,0,0,0-2.648,2.657,2.642,2.642,0,1,0,5.283,0m-.439,0a2.2,2.2,0,1,1-4.393,0,2.2,2.2,0,1,1,4.393,0m-1.691.133.715,1.316h-.531l-.684-1.245h-.52v1.245h-.493V8.4H46.4c.679,0,1.068.311,1.068.852a.758.758,0,0,1-.606.817m-.5-1.221h-.526v.864h.537c.426,0,.6-.135.6-.45,0-.286-.189-.415-.615-.415" transform="translate(15.952 2.655)" fill="#fff"/>
      <path id="path28524" d="M11.161,26.593A31.676,31.676,0,0,1,25.618,12.312c.715-.34,1.443-.655,2.178-.941a.058.058,0,0,0-.033-.111C5.994,14.924-3.348,41.983,11.19,53.563a.06.06,0,0,0,.087-.08c-2.111-2.9-7.092-12.876-.116-26.889m5,18.041a33.768,33.768,0,0,1,0-10.7A33,33,0,0,1,25.573,15.71a30.875,30.875,0,0,1,2.868-2.486.059.059,0,0,0-.06-.1C17,18.211,10.435,30.9,11.276,42.469c.462,5.285,2.541,15.018,12.674,16.94A.061.061,0,0,0,24,59.3c-4.169-2.865-7.1-9.567-7.833-14.665M2.1,18.564C7.184,11.377,17.629,6.527,27.831,7.788a.058.058,0,0,0,.024-.113C20.068,5.4,11.967,6.925,7.017,10.924,4.893,12.638,3.244,15.6,1.994,18.506a.059.059,0,0,0,.1.058m57.468,8.97A30.187,30.187,0,0,0,26.96.123,30.334,30.334,0,0,0,10.584,6.856a.059.059,0,0,0,.067.1c3.9-2.229,9.265-2.175,12.432-1.805A27.095,27.095,0,0,1,32.616,8.1c.764.4,1.509.841,2.229,1.314a31.368,31.368,0,0,1,8.379-2.391h.01a.44.44,0,0,1,.479.273.425.425,0,0,1-.313.561,31.163,31.163,0,0,0-4.517,1.321.063.063,0,0,0,.024.122,30.725,30.725,0,0,1,6.168.652h.01a.433.433,0,0,1,.346.36.429.429,0,0,1-.484.479,29.432,29.432,0,0,0-5.354-.317.062.062,0,0,0-.015.122q1.256.385,2.47.875A30.117,30.117,0,0,1,46.421,13.7l.015.012a.405.405,0,0,1,.2.386.427.427,0,0,1-.63.34,29.338,29.338,0,0,0-4.32-1.951c-.628-.218-1.263-.419-1.9-.593a.063.063,0,0,0-.051.113,27.271,27.271,0,0,1,2.99,2.177A28.779,28.779,0,0,1,46.2,17.64l.01.011a.413.413,0,0,1,.071.433.428.428,0,0,1-.708.124A28.014,28.014,0,0,0,42.1,14.985a26.515,26.515,0,0,0-2.3-1.6.063.063,0,0,0-.078.1c.227.237.45.48.668.726a27.031,27.031,0,0,1,5.032,8.406l.005.011a.421.421,0,0,1-.082.435.429.429,0,0,1-.712-.131,25.989,25.989,0,0,0-5.048-7.977,26.351,26.351,0,0,0-3.523-3.17c-.357-.269-.9-.642-1.112-.781C10.207,24.8,18.791,61.018,36.645,59.136a29.985,29.985,0,0,0,22.92-31.6M5.848,23.015A30.563,30.563,0,0,1,27.587,9.494a.059.059,0,0,0,0-.116,25.807,25.807,0,0,0-7.9.582A27.223,27.223,0,0,0,10.978,13.6a26.856,26.856,0,0,0-6.919,6.424c-.018.024-.036.053-.056.076A20.57,20.57,0,0,0,.609,37.319c.166.682.63,2.1.945,3a.058.058,0,0,0,.113-.027A26.18,26.18,0,0,1,5.848,23.015" transform="translate(0 0)" fill="#e8171f"/>
    </g>
  </g>
</svg>
