<svg width="60" height="60" viewBox="0 0 60 60" fill="none" xmlns="http://www.w3.org/2000/svg">
<path d="M11.161 26.593C14.2808 20.3741 19.3614 15.3554 25.618 12.312C26.333 11.972 27.061 11.657 27.796 11.371C27.8099 11.3659 27.8214 11.3558 27.828 11.3426C27.8347 11.3294 27.8361 11.3141 27.8318 11.2999C27.8276 11.2857 27.8181 11.2737 27.8053 11.2663C27.7925 11.2589 27.7774 11.2566 27.763 11.26C5.994 14.924 -3.34801 41.983 11.19 53.563C11.2012 53.5716 11.2151 53.5759 11.2292 53.5753C11.2433 53.5746 11.2567 53.5691 11.2671 53.5595C11.2775 53.5499 11.2842 53.537 11.286 53.523C11.2878 53.509 11.2846 53.4949 11.277 53.483C9.16599 50.583 4.18499 40.606 11.161 26.593ZM16.161 44.635C15.5923 41.091 15.5923 37.479 16.161 33.935C17.2827 27.0144 20.5794 20.6309 25.573 15.71C26.4771 14.8233 27.4349 13.993 28.441 13.224C28.4518 13.215 28.4591 13.2024 28.4614 13.1885C28.4638 13.1746 28.4611 13.1603 28.4539 13.1483C28.4466 13.1362 28.4353 13.1271 28.4219 13.1226C28.4086 13.1182 28.394 13.1187 28.381 13.124C17 18.211 10.435 30.9 11.276 42.469C11.738 47.754 13.817 57.487 23.95 59.409C23.9638 59.4124 23.9784 59.411 23.9912 59.4048C24.004 59.3986 24.0143 59.3882 24.0202 59.3752C24.0262 59.3623 24.0274 59.3477 24.0237 59.334C24.02 59.3202 24.0116 59.3082 24 59.3C19.831 56.435 16.9 49.733 16.167 44.635M2.09999 18.564C7.18399 11.377 17.629 6.52698 27.831 7.78798C27.8454 7.78969 27.8599 7.78596 27.8716 7.77753C27.8834 7.76911 27.8916 7.75659 27.8946 7.74243C27.8976 7.72828 27.8952 7.71351 27.8879 7.70103C27.8805 7.68855 27.8688 7.67926 27.855 7.67498C20.068 5.39998 11.967 6.92498 7.01699 10.924C4.89299 12.638 3.24399 15.6 1.99399 18.506C1.98967 18.5189 1.98993 18.5328 1.99473 18.5456C1.99953 18.5583 2.00857 18.569 2.02033 18.5758C2.03209 18.5826 2.04584 18.5851 2.05926 18.583C2.07269 18.5808 2.08496 18.5741 2.09399 18.564M59.562 27.534C58.8561 19.5829 55.0296 12.235 48.9198 7.098C42.81 1.96101 34.9142 -0.546899 26.96 0.122977C20.9532 0.68879 15.2516 3.03301 10.584 6.85598C10.5774 6.86038 10.5718 6.86603 10.5674 6.8726C10.563 6.87918 10.56 6.88656 10.5585 6.89431C10.5569 6.90206 10.5569 6.91004 10.5585 6.91779C10.56 6.92554 10.5631 6.93291 10.5675 6.93948C10.5719 6.94604 10.5775 6.95168 10.5841 6.95606C10.5907 6.96044 10.5981 6.96349 10.6058 6.96502C10.6136 6.96655 10.6216 6.96654 10.6293 6.96499C10.6371 6.96344 10.6444 6.96038 10.651 6.95598C14.551 4.72698 19.916 4.78098 23.083 5.15098C26.4158 5.53531 29.6483 6.53526 32.616 8.09998C33.38 8.49998 34.125 8.94098 34.845 9.41398C37.5132 8.23105 40.3334 7.42628 43.224 7.02298H43.234C43.333 7.0071 43.4344 7.0255 43.5216 7.07515C43.6087 7.1248 43.6762 7.20271 43.713 7.29598C43.7338 7.35325 43.742 7.41432 43.7371 7.47505C43.7322 7.53578 43.7143 7.59475 43.6846 7.64795C43.6549 7.70116 43.6141 7.74736 43.565 7.78342C43.5159 7.81949 43.4596 7.84457 43.4 7.85698C41.8632 8.18283 40.3532 8.62442 38.883 9.17798C38.869 9.1832 38.8573 9.19322 38.85 9.20626C38.8427 9.2193 38.8403 9.23451 38.8432 9.24917C38.8461 9.26383 38.8541 9.27699 38.8658 9.28629C38.8774 9.2956 38.8921 9.30045 38.907 9.29998C40.9797 9.3087 43.0463 9.52715 45.075 9.95198H45.085C45.1728 9.96892 45.2532 10.0126 45.3151 10.0771C45.3771 10.1415 45.4175 10.2236 45.431 10.312C45.4393 10.3773 45.4324 10.4436 45.411 10.5059C45.3895 10.5681 45.354 10.6246 45.3072 10.6709C45.2604 10.7172 45.2036 10.7521 45.1411 10.7729C45.0786 10.7938 45.0122 10.7999 44.947 10.791C43.1757 10.5226 41.3836 10.4165 39.593 10.474C39.578 10.4741 39.5635 10.4797 39.5523 10.4897C39.5411 10.4997 39.5339 10.5135 39.5321 10.5284C39.5302 10.5433 39.5339 10.5584 39.5423 10.5708C39.5508 10.5833 39.5635 10.5922 39.578 10.596C40.4153 10.8526 41.2387 11.1443 42.048 11.471C43.5639 12.0938 45.0264 12.8392 46.421 13.7L46.436 13.712C46.5026 13.7506 46.5568 13.8075 46.5922 13.8759C46.6276 13.9442 46.6428 14.0213 46.636 14.098C46.6302 14.1689 46.6068 14.2372 46.5679 14.2967C46.529 14.3562 46.4758 14.4051 46.4132 14.4389C46.3506 14.4726 46.2806 14.4902 46.2095 14.4901C46.1384 14.4899 46.0684 14.472 46.006 14.438C44.621 13.6722 43.1763 13.0197 41.686 12.487C41.058 12.269 40.423 12.068 39.786 11.894C39.7717 11.8904 39.7566 11.892 39.7433 11.8984C39.73 11.9048 39.7194 11.9157 39.7133 11.9292C39.7073 11.9426 39.7061 11.9578 39.7101 11.972C39.714 11.9862 39.7228 11.9986 39.735 12.007C40.7798 12.6641 41.7787 13.3915 42.725 14.184C43.9795 15.2351 45.142 16.3913 46.2 17.64L46.21 17.651C46.2613 17.7092 46.2952 17.7807 46.3078 17.8573C46.3203 17.9339 46.311 18.0124 46.281 18.084C46.2531 18.1498 46.2092 18.2076 46.1533 18.252C46.0973 18.2965 46.0311 18.3263 45.9607 18.3386C45.8903 18.3509 45.818 18.3454 45.7502 18.3226C45.6825 18.2998 45.6216 18.2604 45.573 18.208C44.5084 17.0375 43.3466 15.9593 42.1 14.985C41.3621 14.4115 40.5943 13.8774 39.8 13.385C39.7934 13.3799 39.7859 13.3761 39.7779 13.3739C39.7699 13.3716 39.7615 13.371 39.7532 13.372C39.745 13.3731 39.737 13.3757 39.7297 13.3798C39.7225 13.3839 39.7161 13.3894 39.711 13.396C39.7059 13.4025 39.7021 13.4101 39.6999 13.4181C39.6977 13.4261 39.697 13.4345 39.6981 13.4428C39.6991 13.451 39.7017 13.459 39.7058 13.4662C39.7099 13.4735 39.7154 13.4799 39.722 13.485C39.949 13.722 40.172 13.965 40.39 14.211C42.5653 16.6831 44.2707 19.5319 45.422 22.617L45.427 22.628C45.4551 22.7009 45.4623 22.7803 45.4478 22.8571C45.4333 22.934 45.3977 23.0052 45.345 23.063C45.2959 23.1159 45.2342 23.1555 45.1657 23.1782C45.0972 23.2009 45.024 23.206 44.953 23.1929C44.882 23.1799 44.8155 23.1491 44.7595 23.1035C44.7036 23.0579 44.6601 22.9989 44.633 22.932C43.4514 19.9871 41.7405 17.2835 39.585 14.955C38.5083 13.7946 37.3292 12.7337 36.062 11.785C35.705 11.516 35.162 11.143 34.95 11.004C10.207 24.8 18.791 61.018 36.645 59.136C43.6089 57.4727 49.7478 53.3724 53.9516 47.5766C58.1554 41.7808 60.1465 34.6721 59.565 27.536M5.84799 23.015C8.27838 19.3234 11.4805 16.2029 15.2336 13.8686C18.9866 11.5343 23.2013 10.0418 27.587 9.49398C27.6005 9.49145 27.6128 9.48427 27.6216 9.47368C27.6304 9.46309 27.6352 9.44975 27.6352 9.43598C27.6352 9.42221 27.6304 9.40887 27.6216 9.39828C27.6128 9.38768 27.6005 9.3805 27.587 9.37798C24.9394 9.16426 22.2747 9.36058 19.687 9.95998C16.5942 10.6569 13.6469 11.8888 10.978 13.6C8.3104 15.3159 5.96788 17.4909 4.05899 20.024C4.04099 20.048 4.02299 20.077 4.00299 20.1C2.20232 22.5421 0.964224 25.3524 0.377445 28.3293C-0.209335 31.3063 -0.130262 34.3762 0.608995 37.319C0.774995 38.001 1.23899 39.419 1.55399 40.319C1.55758 40.334 1.56696 40.3469 1.58009 40.355C1.58659 40.359 1.59381 40.3616 1.60135 40.3628C1.60888 40.364 1.61657 40.3637 1.62399 40.362C1.63141 40.3602 1.63841 40.357 1.64459 40.3525C1.65077 40.348 1.656 40.3424 1.65999 40.3359C1.66399 40.3294 1.66666 40.3222 1.66786 40.3146C1.66906 40.3071 1.66877 40.2994 1.66699 40.292C1.00305 34.2216 2.48202 28.1101 5.84799 23.015Z" fill="#E8171F"/>
</svg>
