<svg id="icon-document_storage" data-name="icon-document storage" xmlns="http://www.w3.org/2000/svg" width="36" height="36" viewBox="0 0 36 36">
  <rect id="Rectangle_1693" data-name="Rectangle 1693" width="36" height="36" fill="#d3d4d4" opacity="0"/>
  <g id="icon_4" transform="translate(3.75 6.75)">
    <path id="Path_28" data-name="Path 28" d="M44.427,64.382H17.691a.959.959,0,0,1-.858-1.035v-13.3a.959.959,0,0,1,.858-1.035l5.414.017.027.086,3.438,4.509h8.991l3.417-4.591,5.448-.021a.959.959,0,0,1,.858,1.035v13.3A.958.958,0,0,1,44.427,64.382Z" transform="translate(-16.833 -41.878)" fill="none" stroke="#8d8d8d" stroke-linecap="round" stroke-linejoin="round" stroke-width="2"/>
    <path id="Path_29" data-name="Path 29" d="M26,39.961V33.928A.893.893,0,0,1,26.848,33H45.919a.89.89,0,0,1,.848.928v6.033" transform="translate(-22.153 -33)" fill="none" stroke="#8d8d8d" stroke-linecap="round" stroke-linejoin="round" stroke-width="2"/>
  </g>
</svg>
