<svg id="icon-reports" xmlns="http://www.w3.org/2000/svg" width="36" height="36" viewBox="0 0 36 36">
  <rect id="Rectangle_1694" data-name="Rectangle 1694" width="36" height="36" fill="none"/>
  <g id="icon_5" transform="translate(6.75 3.75)">
    <path id="Path_32" data-name="Path 32" d="M21,26V50.546a.815.815,0,0,0,.759.862H38.071a.818.818,0,0,0,.759-.862V48.391" transform="translate(-21 -23.022)" fill="none" stroke="#8d8d8d" stroke-linecap="round" stroke-linejoin="round" stroke-width="2"/>
    <path id="Path_33" data-name="Path 33" d="M42.7,16v6.449a.814.814,0,0,0,.759.86l6.131,0V22.89L42.7,16H31.759a.816.816,0,0,0-.759.86V40.076a.814.814,0,0,0,.759.86H48.83a.814.814,0,0,0,.759-.86V23.308" transform="translate(-27.206 -15.997)" fill="none" stroke="#8d8d8d" stroke-linecap="round" stroke-linejoin="round" stroke-width="2"/>
  </g>
</svg>
